<svg width="106" height="109" viewBox="0 0 106 109" fill="none" xmlns="http://www.w3.org/2000/svg">
<g filter="url(#filter0_dd_107_13)">
<rect x="0.404053" y="52.5461" width="74" height="74" rx="10" transform="rotate(-45 0.404053 52.5461)" fill="#525252"/>
</g>
<path d="M37.7227 41.1602C39.9258 41.2539 42.6973 41.3008 46.0371 41.3008L52.8398 59.7227H52.9277L60.0117 41.3008H62.0332C63.4863 41.3008 65.5371 41.2539 68.1855 41.1602C68.2324 41.3477 68.2559 41.4766 68.2559 41.5469C68.2559 41.6289 68.2324 41.7754 68.1855 41.9863C67.7637 42.0215 67.4238 42.0566 67.166 42.0918C66.9082 42.127 66.5625 42.1855 66.1289 42.2676C65.707 42.3496 65.3672 42.4492 65.1094 42.5664C64.8516 42.6719 64.623 42.8242 64.4238 43.0234C64.2246 43.2109 64.1191 43.4277 64.1074 43.6738C63.9902 46.4277 63.9316 49.7031 63.9316 53.5C63.9316 57.3555 64.0078 61.0527 64.1602 64.5918C64.1719 64.8965 64.3066 65.1602 64.5645 65.3828C64.8223 65.5938 65.1914 65.7578 65.6719 65.875C66.1641 65.9922 66.5742 66.0801 66.9023 66.1387C67.2422 66.1855 67.6816 66.2324 68.2207 66.2793C68.2676 66.4668 68.291 66.625 68.291 66.7539C68.291 66.8477 68.2676 66.9648 68.2207 67.1055C66.2402 67.0352 64.2012 67 62.1035 67C59.9941 67 57.9551 67.0352 55.9863 67.1055C55.9395 66.9648 55.916 66.8477 55.916 66.7539C55.916 66.5547 55.9395 66.3965 55.9863 66.2793C56.5254 66.2324 56.959 66.1855 57.2871 66.1387C57.627 66.0801 58.0371 65.9922 58.5176 65.875C59.0098 65.7578 59.3848 65.5938 59.6426 65.3828C59.9004 65.1602 60.0352 64.8965 60.0469 64.5918C60.1641 60.9355 60.2227 57.6719 60.2227 54.8008C60.2227 52.0469 60.1641 48.9121 60.0469 45.3965H59.9062L51.873 66.5605H51.6973L43.1367 44.9746H42.9434C42.8496 47.8223 42.8027 51.0977 42.8027 54.8008C42.8027 57.5195 42.8613 60.6953 42.9785 64.3281C43.002 65.3945 44.2969 66.0449 46.8633 66.2793C46.9219 66.4785 46.9512 66.6367 46.9512 66.7539C46.9512 66.8711 46.9219 66.9883 46.8633 67.1055C45 67.0352 43.3359 67 41.8711 67C40.9336 67 39.3633 67.0352 37.1602 67.1055C37.1016 66.9883 37.0723 66.8711 37.0723 66.7539C37.0723 66.5547 37.1016 66.3965 37.1602 66.2793C39.75 66.0332 41.0449 65.3828 41.0449 64.3281C41.1855 60.6719 41.2559 57.0625 41.2559 53.5C41.2559 50.9336 41.2207 48.209 41.1504 45.3262C41.1387 44.834 41.1094 44.4238 41.0625 44.0957C41.0156 43.7559 40.9277 43.4629 40.7988 43.2168C40.6699 42.9707 40.5352 42.7773 40.3945 42.6367C40.2539 42.4961 40.0371 42.373 39.7441 42.2676C39.4512 42.1504 39.1641 42.0684 38.8828 42.0215C38.6133 41.9629 38.2266 41.8984 37.7227 41.8281C37.6758 41.7344 37.6523 41.6289 37.6523 41.5117C37.6523 41.3711 37.6758 41.2539 37.7227 41.1602Z" fill="#17DEDE"/>
<defs>
<filter id="filter0_dd_107_13" x="0.546204" y="4.3623" width="104.367" height="104.368" filterUnits="userSpaceOnUse" color-interpolation-filters="sRGB">
<feFlood flood-opacity="0" result="BackgroundImageFix"/>
<feColorMatrix in="SourceAlpha" type="matrix" values="0 0 0 0 0 0 0 0 0 0 0 0 0 0 0 0 0 0 127 0" result="hardAlpha"/>
<feOffset dy="4"/>
<feGaussianBlur stdDeviation="2"/>
<feComposite in2="hardAlpha" operator="out"/>
<feColorMatrix type="matrix" values="0 0 0 0 0 0 0 0 0 0 0 0 0 0 0 0 0 0 0.25 0"/>
<feBlend mode="normal" in2="BackgroundImageFix" result="effect1_dropShadow_107_13"/>
<feColorMatrix in="SourceAlpha" type="matrix" values="0 0 0 0 0 0 0 0 0 0 0 0 0 0 0 0 0 0 127 0" result="hardAlpha"/>
<feOffset dy="4"/>
<feGaussianBlur stdDeviation="2"/>
<feComposite in2="hardAlpha" operator="out"/>
<feColorMatrix type="matrix" values="0 0 0 0 0 0 0 0 0 0 0 0 0 0 0 0 0 0 0.25 0"/>
<feBlend mode="normal" in2="effect1_dropShadow_107_13" result="effect2_dropShadow_107_13"/>
<feBlend mode="normal" in="SourceGraphic" in2="effect2_dropShadow_107_13" result="shape"/>
</filter>
</defs>
</svg>
